# xmcd CD database file
# Copyright (C) 1998 Ti Kan
# 
# Track frame offsets:
#     150
#     14000
#     27490
#     41572
#     61232
#     78587
#     98379
#     112357
#     132550
#     155627
#     172512
#     190280
#     207522
#     226420
#     247400
# 
# Disc length: 3491 seconds
# 
# Revision: 1
# Processed by: cddbd v1.4b41PL1 Copyright (c) Steve Scherf et al.
# Submitted via: DiscPlay 4.0.4
# 
DISCID=d50da10f
DTITLE=Lex and Joe - What's All These Blues About
DYEAR=1900
DGENRE=
TTITLE0=Cakewalk Into Town
TTITLE1=Five Guys Named Moe
TTITLE2=Flat Foot Foogie
TTITLE3=Do You Know What It Means To Miss New Orleans?
TTITLE4=It Don't Mean a Thing If It Ain't Got That Swing
TTITLE5=Seventh Son
TTITLE6=Don't
TTITLE7=Clap Hands
TTITLE8=Mr. Jelly Roll Baker
TTITLE9=Boogie Woogie Country Boy
TTITLE10=Come Back Baby
TTITLE11=What's All These Blues About?
TTITLE12=Mojo Boogie
TTITLE13=My Walkin' Stick
TTITLE14=Your Feets Too Big
EXTD=
EXTT0=
EXTT1=
EXTT2=
EXTT3=
EXTT4=
EXTT5=
EXTT6=
EXTT7=
EXTT8=
EXTT9=
EXTT10=
EXTT11=
EXTT12=
EXTT13=
EXTT14=
PLAYORDER=
